<mxfile host="65bd71144e">
    <diagram id="5LmNoTUxs_HwX6OLnpz4" name="第 1 页">
        <mxGraphModel dx="1448" dy="641" grid="1" gridSize="10" guides="1" tooltips="1" connect="1" arrows="1" fold="1" page="1" pageScale="1" pageWidth="827" pageHeight="1169" math="0" shadow="0">
            <root>
                <mxCell id="0"/>
                <mxCell id="1" parent="0"/>
                <mxCell id="3" value="" style="whiteSpace=wrap;html=1;shape=cube;" vertex="1" parent="1">
                    <mxGeometry x="300" y="280" width="220" height="60" as="geometry"/>
                </mxCell>
            </root>
        </mxGraphModel>
    </diagram>
</mxfile>